<mxfile host="app.diagrams.net" agent="Mozilla/5.0 (Windows NT 10.0; Win64; x64; rv:129.0) Gecko/20100101 Firefox/129.0" version="24.7.7">
  <diagram name="Page-1" id="iw9lyMQQtnbip2BY1N9q">
    <mxGraphModel dx="1050" dy="593" grid="1" gridSize="10" guides="1" tooltips="1" connect="1" arrows="1" fold="1" page="1" pageScale="1" pageWidth="850" pageHeight="1100" math="0" shadow="0">
      <root>
        <mxCell id="0" />
        <mxCell id="1" parent="0" />
        <mxCell id="r9C840G9jfHGaCoYvN-4-1" value="&lt;font size=&quot;1&quot;&gt;Specifications&lt;br&gt;Input&lt;br&gt;Weight1&lt;br&gt;Weight2&lt;br&gt;Weight3&lt;br&gt;&lt;br&gt;&lt;br&gt;Output&lt;/font&gt;&lt;br&gt;Sum&lt;br&gt;&lt;br&gt;&lt;br&gt;Processing&lt;br&gt;Sum = Weight1 + Weight2 + Weight3 &lt;div&gt;&lt;br&gt;&lt;/div&gt;Initilaization&lt;br&gt;MaxWeight = 125" style="text;html=1;whiteSpace=wrap;overflow=hidden;rounded=0;" vertex="1" parent="1">
          <mxGeometry x="1" width="180" height="460" as="geometry" />
        </mxCell>
        <mxCell id="r9C840G9jfHGaCoYvN-4-12" style="edgeStyle=orthogonalEdgeStyle;rounded=0;orthogonalLoop=1;jettySize=auto;html=1;exitX=0.5;exitY=1;exitDx=0;exitDy=0;entryX=0.5;entryY=0;entryDx=0;entryDy=0;" edge="1" parent="1" source="r9C840G9jfHGaCoYvN-4-2" target="r9C840G9jfHGaCoYvN-4-3">
          <mxGeometry relative="1" as="geometry" />
        </mxCell>
        <mxCell id="r9C840G9jfHGaCoYvN-4-2" value="Start" style="ellipse;whiteSpace=wrap;html=1;" vertex="1" parent="1">
          <mxGeometry x="380" width="120" height="80" as="geometry" />
        </mxCell>
        <mxCell id="r9C840G9jfHGaCoYvN-4-13" style="edgeStyle=orthogonalEdgeStyle;rounded=0;orthogonalLoop=1;jettySize=auto;html=1;exitX=0.5;exitY=1;exitDx=0;exitDy=0;entryX=0.5;entryY=0;entryDx=0;entryDy=0;" edge="1" parent="1" source="r9C840G9jfHGaCoYvN-4-3" target="r9C840G9jfHGaCoYvN-4-4">
          <mxGeometry relative="1" as="geometry" />
        </mxCell>
        <mxCell id="r9C840G9jfHGaCoYvN-4-3" value="Max Weight = 125" style="rounded=0;whiteSpace=wrap;html=1;" vertex="1" parent="1">
          <mxGeometry x="380" y="110" width="120" height="60" as="geometry" />
        </mxCell>
        <mxCell id="r9C840G9jfHGaCoYvN-4-14" style="edgeStyle=orthogonalEdgeStyle;rounded=0;orthogonalLoop=1;jettySize=auto;html=1;exitX=0.5;exitY=1;exitDx=0;exitDy=0;entryX=0.5;entryY=0;entryDx=0;entryDy=0;" edge="1" parent="1" source="r9C840G9jfHGaCoYvN-4-4" target="r9C840G9jfHGaCoYvN-4-5">
          <mxGeometry relative="1" as="geometry" />
        </mxCell>
        <mxCell id="r9C840G9jfHGaCoYvN-4-4" value="Enter Weight1" style="shape=parallelogram;perimeter=parallelogramPerimeter;whiteSpace=wrap;html=1;fixedSize=1;" vertex="1" parent="1">
          <mxGeometry x="380" y="200" width="120" height="60" as="geometry" />
        </mxCell>
        <mxCell id="r9C840G9jfHGaCoYvN-4-15" style="edgeStyle=orthogonalEdgeStyle;rounded=0;orthogonalLoop=1;jettySize=auto;html=1;exitX=0.5;exitY=1;exitDx=0;exitDy=0;entryX=0.5;entryY=0;entryDx=0;entryDy=0;" edge="1" parent="1" source="r9C840G9jfHGaCoYvN-4-5" target="r9C840G9jfHGaCoYvN-4-6">
          <mxGeometry relative="1" as="geometry" />
        </mxCell>
        <mxCell id="r9C840G9jfHGaCoYvN-4-5" value="&lt;div&gt;Input Weight1&lt;/div&gt;" style="shape=parallelogram;perimeter=parallelogramPerimeter;whiteSpace=wrap;html=1;fixedSize=1;" vertex="1" parent="1">
          <mxGeometry x="380" y="280" width="120" height="60" as="geometry" />
        </mxCell>
        <mxCell id="r9C840G9jfHGaCoYvN-4-16" style="edgeStyle=orthogonalEdgeStyle;rounded=0;orthogonalLoop=1;jettySize=auto;html=1;exitX=0.5;exitY=1;exitDx=0;exitDy=0;entryX=0.5;entryY=0;entryDx=0;entryDy=0;" edge="1" parent="1" source="r9C840G9jfHGaCoYvN-4-6" target="r9C840G9jfHGaCoYvN-4-7">
          <mxGeometry relative="1" as="geometry" />
        </mxCell>
        <mxCell id="r9C840G9jfHGaCoYvN-4-6" value="Enter Weight2" style="shape=parallelogram;perimeter=parallelogramPerimeter;whiteSpace=wrap;html=1;fixedSize=1;" vertex="1" parent="1">
          <mxGeometry x="380" y="360" width="120" height="60" as="geometry" />
        </mxCell>
        <mxCell id="r9C840G9jfHGaCoYvN-4-17" style="edgeStyle=orthogonalEdgeStyle;rounded=0;orthogonalLoop=1;jettySize=auto;html=1;exitX=0.5;exitY=1;exitDx=0;exitDy=0;entryX=0.5;entryY=0;entryDx=0;entryDy=0;" edge="1" parent="1" source="r9C840G9jfHGaCoYvN-4-7" target="r9C840G9jfHGaCoYvN-4-8">
          <mxGeometry relative="1" as="geometry" />
        </mxCell>
        <mxCell id="r9C840G9jfHGaCoYvN-4-7" value="Input Weight2" style="shape=parallelogram;perimeter=parallelogramPerimeter;whiteSpace=wrap;html=1;fixedSize=1;" vertex="1" parent="1">
          <mxGeometry x="380" y="440" width="120" height="60" as="geometry" />
        </mxCell>
        <mxCell id="r9C840G9jfHGaCoYvN-4-18" style="edgeStyle=orthogonalEdgeStyle;rounded=0;orthogonalLoop=1;jettySize=auto;html=1;exitX=0.5;exitY=1;exitDx=0;exitDy=0;entryX=0.5;entryY=0;entryDx=0;entryDy=0;" edge="1" parent="1" source="r9C840G9jfHGaCoYvN-4-8" target="r9C840G9jfHGaCoYvN-4-9">
          <mxGeometry relative="1" as="geometry" />
        </mxCell>
        <mxCell id="r9C840G9jfHGaCoYvN-4-8" value="Enter Weight3" style="shape=parallelogram;perimeter=parallelogramPerimeter;whiteSpace=wrap;html=1;fixedSize=1;" vertex="1" parent="1">
          <mxGeometry x="380" y="520" width="120" height="60" as="geometry" />
        </mxCell>
        <mxCell id="r9C840G9jfHGaCoYvN-4-19" style="edgeStyle=orthogonalEdgeStyle;rounded=0;orthogonalLoop=1;jettySize=auto;html=1;exitX=0.5;exitY=1;exitDx=0;exitDy=0;" edge="1" parent="1" source="r9C840G9jfHGaCoYvN-4-9" target="r9C840G9jfHGaCoYvN-4-11">
          <mxGeometry relative="1" as="geometry" />
        </mxCell>
        <mxCell id="r9C840G9jfHGaCoYvN-4-9" value="Input Weight3" style="shape=parallelogram;perimeter=parallelogramPerimeter;whiteSpace=wrap;html=1;fixedSize=1;" vertex="1" parent="1">
          <mxGeometry x="380" y="600" width="120" height="60" as="geometry" />
        </mxCell>
        <mxCell id="r9C840G9jfHGaCoYvN-4-21" style="edgeStyle=orthogonalEdgeStyle;rounded=0;orthogonalLoop=1;jettySize=auto;html=1;exitX=0.5;exitY=1;exitDx=0;exitDy=0;entryX=0.5;entryY=0;entryDx=0;entryDy=0;" edge="1" parent="1" source="r9C840G9jfHGaCoYvN-4-11" target="r9C840G9jfHGaCoYvN-4-20">
          <mxGeometry relative="1" as="geometry" />
        </mxCell>
        <mxCell id="r9C840G9jfHGaCoYvN-4-11" value="Sum = Weight1 + Weigh2 + Weight3" style="rounded=0;whiteSpace=wrap;html=1;" vertex="1" parent="1">
          <mxGeometry x="380" y="680" width="120" height="60" as="geometry" />
        </mxCell>
        <mxCell id="r9C840G9jfHGaCoYvN-4-25" style="edgeStyle=orthogonalEdgeStyle;rounded=0;orthogonalLoop=1;jettySize=auto;html=1;exitX=1;exitY=0.5;exitDx=0;exitDy=0;entryX=0;entryY=0.5;entryDx=0;entryDy=0;" edge="1" parent="1" source="r9C840G9jfHGaCoYvN-4-20" target="r9C840G9jfHGaCoYvN-4-22">
          <mxGeometry relative="1" as="geometry" />
        </mxCell>
        <mxCell id="r9C840G9jfHGaCoYvN-4-28" style="edgeStyle=orthogonalEdgeStyle;rounded=0;orthogonalLoop=1;jettySize=auto;html=1;exitX=0.5;exitY=1;exitDx=0;exitDy=0;entryX=0.5;entryY=0;entryDx=0;entryDy=0;" edge="1" parent="1" source="r9C840G9jfHGaCoYvN-4-20" target="r9C840G9jfHGaCoYvN-4-27">
          <mxGeometry relative="1" as="geometry" />
        </mxCell>
        <mxCell id="r9C840G9jfHGaCoYvN-4-20" value="if 125 &amp;gt; sum" style="rhombus;whiteSpace=wrap;html=1;" vertex="1" parent="1">
          <mxGeometry x="400" y="770" width="80" height="80" as="geometry" />
        </mxCell>
        <mxCell id="r9C840G9jfHGaCoYvN-4-31" style="edgeStyle=orthogonalEdgeStyle;rounded=0;orthogonalLoop=1;jettySize=auto;html=1;exitX=0.5;exitY=1;exitDx=0;exitDy=0;entryX=0.5;entryY=0;entryDx=0;entryDy=0;" edge="1" parent="1" source="r9C840G9jfHGaCoYvN-4-22" target="r9C840G9jfHGaCoYvN-4-23">
          <mxGeometry relative="1" as="geometry" />
        </mxCell>
        <mxCell id="r9C840G9jfHGaCoYvN-4-22" value="Print Pets can fit" style="shape=parallelogram;perimeter=parallelogramPerimeter;whiteSpace=wrap;html=1;fixedSize=1;" vertex="1" parent="1">
          <mxGeometry x="510" y="780" width="120" height="60" as="geometry" />
        </mxCell>
        <mxCell id="r9C840G9jfHGaCoYvN-4-30" style="edgeStyle=orthogonalEdgeStyle;rounded=0;orthogonalLoop=1;jettySize=auto;html=1;exitX=1;exitY=0.5;exitDx=0;exitDy=0;entryX=0;entryY=0.5;entryDx=0;entryDy=0;" edge="1" parent="1" source="r9C840G9jfHGaCoYvN-4-23" target="r9C840G9jfHGaCoYvN-4-24">
          <mxGeometry relative="1" as="geometry" />
        </mxCell>
        <mxCell id="r9C840G9jfHGaCoYvN-4-23" value="Print Sum" style="shape=parallelogram;perimeter=parallelogramPerimeter;whiteSpace=wrap;html=1;fixedSize=1;" vertex="1" parent="1">
          <mxGeometry x="510" y="880" width="120" height="60" as="geometry" />
        </mxCell>
        <mxCell id="r9C840G9jfHGaCoYvN-4-24" value="END" style="ellipse;whiteSpace=wrap;html=1;" vertex="1" parent="1">
          <mxGeometry x="680" y="870" width="120" height="80" as="geometry" />
        </mxCell>
        <mxCell id="r9C840G9jfHGaCoYvN-4-26" value="Yes" style="text;html=1;align=center;verticalAlign=middle;whiteSpace=wrap;rounded=0;" vertex="1" parent="1">
          <mxGeometry x="470" y="780" width="60" height="30" as="geometry" />
        </mxCell>
        <mxCell id="r9C840G9jfHGaCoYvN-4-29" style="edgeStyle=orthogonalEdgeStyle;rounded=0;orthogonalLoop=1;jettySize=auto;html=1;exitX=1;exitY=0.5;exitDx=0;exitDy=0;entryX=0;entryY=0.5;entryDx=0;entryDy=0;" edge="1" parent="1" source="r9C840G9jfHGaCoYvN-4-27" target="r9C840G9jfHGaCoYvN-4-23">
          <mxGeometry relative="1" as="geometry" />
        </mxCell>
        <mxCell id="r9C840G9jfHGaCoYvN-4-27" value="Print Pets cannot fit" style="shape=parallelogram;perimeter=parallelogramPerimeter;whiteSpace=wrap;html=1;fixedSize=1;" vertex="1" parent="1">
          <mxGeometry x="380" y="880" width="120" height="60" as="geometry" />
        </mxCell>
      </root>
    </mxGraphModel>
  </diagram>
</mxfile>
